PathFileType	3	(X/Y/Z)	D:\minhoCalibration\240510\subject1_KPNP\preferred\preferred04.trc
DataRate	CameraRate	NumFrames	NumMarkers	Units	OrigDataRate	OrigDataStartFrame	OrigNumFrames
200.0	200.0	21	10	mm	200.0	169	182	
Frame#	Time	Left_Ankle_Outer1			Left_Ankle_Inner1			Left_Knee_Outer1			Left_Knee_Inner1			Left_Wrist1			Right_Wrist1			Right_Knee_Inner1			Right_Knee_Outer1			Right_Ankle_Inner1			Right_Ankle_Outer1			
		X1	Y1	Z1	X2	Y2	Z2	X3	Y3	Z3	X4	Y4	Z4	X5	Y5	Z5	X6	Y6	Z6	X7	Y7	Z7	X8	Y8	Z8	X9	Y9	Z9	X10	Y10	Z10	
169	0.835	-506.77927	107.9491	-568.64783	-558.98059	116.48132	-550.55072	-426.38229	531.51459	-404.70984	-536.09003	508.61423	-418.30817	-402.10464	973.02246	-559.71252	-718.62885	985.52789	-714.9859	-839.22272	546.91821	-579.63519	-901.66766	591.39801	-673.92505	-703.60394	297.29547	-934.04352	-763.62042	326.73071	-1001.8588
170	0.84	-505.41623	108.86118	-568.95697	-557.44891	117.73552	-550.65198	-421.95416	532.65417	-407.59238	-531.5387	509.86029	-421.80743	-395.98502	976.31372	-562.48059	-719.83533	989.65942	-703.34418	-835.42798	550.58862	-559.68042	-902.20978	595.76074	-652.2041	-703.58801	315.00241	-923.10437	-766.67841	342.61136	-988.84607
171	0.845	-504.12775	109.75932	-569.40442	-556.4455	118.87976	-549.90942	-417.37881	533.84991	-411.03479	-527.22113	511.48938	-424.46454	-389.66122	979.31293	-566.29803	-721.32343	994.14081	-690.40118	-830.67389	554.36328	-539.31128	-901.76215	600.20917	-629.27338	-703.47192	332.85306	-910.80017	-768.31439	359.72479	-974.74396
172	0.85	-503.13211	110.63607	-569.84094	-555.00629	120.359	-549.87622	-412.33502	535.19189	-414.83588	-522.64868	513.27936	-427.00662	-383.29413	982.05731	-570.92114	-722.33978	999.43018	-677.28699	-824.91467	558.4505	-518.70813	-900.15149	604.8808	-605.11688	-703.23889	350.5228	-897.67572	-769.20563	378.32501	-959.74652
173	0.855	-502.1922	111.60361	-570.42047	-553.48163	121.78411	-549.94641	-407.05118	536.56464	-419.20837	-518.177	515.50085	-428.65897	-377.10239	984.61694	-576.4588	-722.7912	1003.9431	-664.021	-817.84711	563.01691	-497.32892	-897.89594	610.13397	-579.47754	-702.31158	369.37585	-883.27637	-769.72192	397.97925	-943.78674
174	0.86	-501.32001	112.68307	-570.88696	-552.00891	123.16485	-549.38104	-401.36652	537.98773	-424.35068	-512.75922	517.14478	-431.57544	-371.01947	987.01007	-582.92181	-722.47375	1008.8711	-650.69659	-809.51971	568.59735	-476.18085	-894.58807	616.36316	-553.94476	-702.09686	387.95648	-868.34308	-770.36835	418.15808	-926.6676
175	0.865	-500.35547	113.97467	-571.46149	-550.66309	124.73888	-549.03198	-395.83401	539.50171	-429.87341	-507.95746	519.73486	-431.94604	-366.00864	989.06409	-589.76263	-720.89374	1014.3223	-637.91022	-799.78156	574.93958	-454.59006	-889.86249	623.0318	-527.44293	-701.90082	407.0585	-852.68915	-771.37195	439.02899	-908.52899
176	0.87	-499.53693	115.26267	-571.86017	-549.44958	126.56592	-548.58978	-390.36218	541.10406	-435.6741	-502.20703	521.52515	-434.06186	-361.5553	991.4364	-597.0791	-719.19141	1019.6184	-624.68585	-788.67493	582.02899	-432.71973	-883.71576	630.48853	-500.36121	-702.20435	426.49564	-836.47015	-773.11798	460.43845	-889.50958
177	0.875	-498.68076	116.81847	-572.3783	-548.03137	128.49861	-547.96539	-385.06079	542.82367	-441.64374	-496.19415	523.30865	-436.11755	-357.92856	993.90747	-604.66858	-716.8241	1025.27	-611.57947	-776.4848	590.40967	-410.12433	-876.27222	638.5755	-473.05429	-703.51251	446.71475	-820.13239	-775.76569	482.1077	-869.53009
178	0.88	-497.71558	118.56293	-572.59741	-546.69458	130.65164	-547.18744	-379.67947	544.65906	-447.66809	-490.07849	525.21368	-438.0448	-354.86734	996.65692	-612.49493	-713.8913	1030.9375	-598.74036	-762.95831	598.65796	-389.37411	-867.39825	647.44922	-445.5943	-705.28625	467.42053	-803.08228	-779.56323	504.10413	-848.59393
179	0.885	-496.92853	120.32261	-572.98114	-545.32788	132.97198	-546.42499	-374.3757	546.63306	-453.73181	-483.81989	527.41339	-439.66849	-352.48083	999.4939	-620.44586	-710.09247	1037.0651	-586.70837	-748.4212	608.19025	-367.78476	-857.11487	656.70135	-418.13708	-707.79236	488.707	-785.61475	-784.30219	526.19495	-826.76453
180	0.89	-496.21484	122.31078	-573.02118	-543.84442	135.45438	-545.4361	-368.89761	548.74396	-459.6763	-478.26102	530.1333	-439.83044	-350.82483	1002.3613	-628.42596	-705.92792	1043.3468	-575.19592	-733.10596	618.67419	-346.61517	-845.46191	666.77521	-390.66699	-710.95911	510.55276	-767.4649	-789.88959	548.56989	-804.0708
181	0.895	-495.39902	124.54433	-573.17419	-542.50464	138.12971	-544.23645	-363.48199	550.83258	-465.49442	-472.12793	532.19043	-441.61722	-349.40088	1005.2911	-636.52673	-700.96918	1049.6276	-564.64606	-717.2171	630.15369	-325.49438	-832.27759	677.82611	-363.19363	-714.7934	532.59088	-748.40167	-795.76147	570.98804	-780.15051
182	0.9	-494.90439	126.69714	-573.24011	-541.24689	140.87398	-543.04376	-357.95239	552.95612	-471.19501	-466.0903	534.82733	-442.78217	-348.4537	1008.0681	-644.8139	-695.88147	1056.3242	-554.24915	-700.78235	642.55133	-304.49667	-817.55957	689.76788	-336.68402	-719.14764	554.84344	-728.43054	-802.20062	593.54047	-755.17334
183	0.905	-494.68021	129.04601	-573.05566	-540.18048	143.67033	-541.63196	-352.91727	554.78076	-476.86819	-459.06427	537.54016	-444.61087	-348.15091	1010.4857	-653.17621	-689.85742	1062.5771	-544.77856	-683.12866	655.85028	-284.50403	-801.63403	702.91931	-310.43655	-723.72717	576.91241	-707.52417	-808.54938	616.23651	-729.10724
184	0.91	-494.87665	131.35878	-572.96808	-539.09631	146.49792	-539.62213	-347.35934	556.60754	-482.41064	-452.65936	539.86017	-445.31665	-348.43927	1012.6716	-661.68225	-683.94415	1069.2063	-536.01996	-664.67938	669.75867	-265.20517	-784.50659	717.29156	-284.9917	-727.64362	598.59637	-685.9032	-814.62726	638.93469	-701.38275
185	0.915	-495.33926	133.73874	-572.7981	-538.02911	149.20285	-536.97198	-341.88718	558.16168	-487.992	-446.10876	541.83698	-445.89066	-349.19461	1014.481	-670.31708	-678.20923	1074.9248	-527.90015	-645.44226	684.39838	-246.45248	-766.33942	732.81946	-260.31293	-732.06219	620.10394	-663.44971	-819.9375	660.96545	-673.22784
186	0.92	-496.23688	136.10582	-572.45996	-537.38416	151.98889	-534.83752	-336.73923	559.35364	-493.62036	-438.60834	544.21106	-446.66763	-349.91351	1016.1022	-679.40875	-671.52838	1080.9398	-520.7207	-625.5274	699.53052	-228.92377	-746.74731	749.7973	-236.48436	-737.83368	640.06329	-639.03705	-824.45605	682.33362	-643.45087
187	0.925	-497.39301	138.38013	-571.88129	-537.0412	154.7058	-532.31891	-332.20511	560.54865	-499.22211	-431.48904	545.70428	-447.23148	-352.03903	1017.0992	-687.76776	-665.77527	1087.2446	-512.80853	-605.31531	715.44812	-211.56113	-726.25116	767.73651	-213.7045	-743.35388	659.75714	-614.0401	-828.55902	703.83563	-613.10999
188	0.93	-498.8183	140.44418	-571.099	-537.10052	157.20766	-529.46625	-328.31067	561.33105	-504.85016	-424.1543	547.13092	-447.659	-354.63229	1017.9202	-696.26208	-658.60358	1092.8601	-506.75363	-584.02808	731.59253	-196.0322	-704.1842	787.17859	-191.43449	-748.87866	678.64697	-588.16962	-832.60181	725.45441	-582.13586
189	0.935	-500.50186	142.26787	-569.98224	-536.96564	159.08531	-526.98993	-325.00586	561.86432	-510.49237	-416.39798	548.22644	-448.69394	-357.47003	1018.3153	-704.93201	-652.41321	1098.6412	-499.98932	-562.32367	747.92053	-182.48451	-680.22125	807.46423	-171.18408	-754.14099	696.75653	-561.52509	-835.98315	746.43378	-550.46643
